# xmcd
#
# Track frame offsets:
#	150
#	19380
#	42581
#	73942
#	93769
#	114780
#	128047
#	160161
#	194401
#	219650
#	232776
#	249700
#	266466
#
# Disc length: 3909 seconds
# Revision: 0
# Processed by: cddbd v1.5.2PL0 Copyright (c) Steve Scherf et al.
# Submitted via: dBpowerAMP V12.0
#
DISCID=b20f430d
DTITLE=Barbara Dane - Throw It Away
DYEAR=2016
DGENRE=Blues
TTITLE0=I'm Selling My Porkchop
TTITLE1=Slow
TTITLE2=Throw It Away
TTITLE3=American Time
TTITLE4=Blues over Bodega
TTITLE5=The Kugerlburg Bank
TTITLE6=King Salomon Blues
TTITLE7=All too Soon
TTITLE8=Tell Me How Long Blues
TTITLE9=How Can You Face Me
TTITLE10=In My Life
TTITLE11=What Kind of Country
TTITLE12=My Brain
EXTD=
EXTT0=
EXTT1=
EXTT2=
EXTT3=
EXTT4=
EXTT5=
EXTT6=
EXTT7=
EXTT8=
EXTT9=
EXTT10=
EXTT11=
EXTT12=
PLAYORDER=
